Coordinates
nRows=6
nColumns=38

# SIMM Motion File Header:
name Coordinates
datacolumns 38
datarows 6
otherdata 1
range 1.70150000000000000000 1.70650000000000010000

Units are S.I. units (second, meters, Newtons, ...)
Angles are in degrees.

endheader
time	pelvis_tilt	pelvis_list	pelvis_rotation	pelvis_tx	pelvis_ty	pelvis_tz	hip_flexion_r	hip_adduction_r	hip_rotation_r	knee_angle_r	ankle_angle_r	subtalar_angle_r	mtp_angle_r	hip_flexion_l	hip_adduction_l	hip_rotation_l	knee_angle_l	ankle_angle_l	subtalar_angle_l	mtp_angle_l	lumbar_extension	lumbar_bending	lumbar_rotation	arm_flex_r	arm_add_r	arm_rot_r	elbow_flex_r	pro_sup_r	wrist_flex_r	wrist_dev_r	arm_flex_l	arm_add_l	arm_rot_l	elbow_flex_l	pro_sup_l	wrist_flex_l	wrist_dev_l
      1.70150000000000000000	     -5.26373602415430500000	      1.35801947103657120000	      2.71772798197087530000	      0.91942450090766159000	      1.01523289743012750000	     -0.31041859002897759000	     41.99344359393133200000	      3.68385796435411720000	      3.75744446022109770000	    -93.74416358313568800000	      3.62535491512483080000	     -0.00000000000005663817	     -0.00000000000018076277	      2.97645374146850950000	      8.94316028956791160000	     12.21362034541642500000	    -31.52680761775830500000	     21.75896597821623900000	      0.00000000000008967684	     -0.00000000000008155751	     -3.59300645072127490000	     -1.57940810285829780000	    -10.89599856312192500000	    -31.73560377939377400000	    -17.50686984629630400000	     -3.57412211961485980000	    104.90507817915517000000	     96.79101144233172200000	      0.00000000000001573522	     -0.00000000000006368573	    -14.50415156768646900000	    -14.05481203981901900000	     -3.69401553068618990000	    128.39611111897082000000	     86.88927240854684400000	      0.00000000000007585097	     -0.00000000000002818468
      1.70250000000000010000	     -5.28773153028994080000	      1.26658049861090130000	      2.65436581832292480000	      0.91966594833403026000	      1.01598618349166970000	     -0.31025386526122706000	     42.09941298568041600000	      3.79451109692718050000	      3.76322479422202560000	    -93.34068665603750500000	      3.66595422613406980000	     -0.00000000000005672112	     -0.00000000000018119245	      2.67293118189931310000	      8.79412615321851020000	     12.17653005920945700000	    -31.22664489408072800000	     21.39580014822584900000	      0.00000000000008982776	     -0.00000000000008221598	     -3.51037773231634500000	     -1.47631833663644540000	    -10.93439517025862900000	    -31.87970397822353900000	    -17.50672276597310200000	     -3.58378183038078650000	    105.04155308495838000000	     96.72421985410902300000	      0.00000000000001576170	     -0.00000000000006389240	    -14.46439461990309500000	    -14.00839649543847500000	     -3.65611326096843920000	    128.60648665806355000000	     86.92792264361412400000	      0.00000000000007603494	     -0.00000000000002833182
      1.70350000000000000000	     -5.31088687630157530000	      1.17491985781917660000	      2.58937062869959340000	      0.91991359110495041000	      1.01674745734926540000	     -0.31008578351021349000	     42.20019284851343100000	      3.90588946117157130000	      3.76910783178246600000	    -92.93084225295982000000	      3.70615317596745440000	     -0.00000000000005681983	     -0.00000000000018162095	      2.36914602564101930000	      8.64431014099395330000	     12.13424733456922400000	    -30.92562474435002400000	     21.02152830721613700000	      0.00000000000008998670	     -0.00000000000008293357	     -3.42822950858744240000	     -1.37287427811048720000	    -10.96993384098910900000	    -32.02438905422083300000	    -17.50466235774894100000	     -3.59564443229907260000	    105.17654835637920000000	     96.65897011695489000000	      0.00000000000001578843	     -0.00000000000006409839	    -14.42604702935195600000	    -13.96122661751047600000	     -3.61694885151162280000	    128.81539799504495000000	     86.97016469703402200000	      0.00000000000007621835	     -0.00000000000002848562
      1.70450000000000010000	     -5.33323591096193360000	      1.08307996768171600000	      2.52278875539177560000	      0.92016727005231991000	      1.01751643612918750000	     -0.30991444298695681000	     42.29582759343844600000	      4.01791796245975790000	      3.77510429917337560000	    -92.51467735421076100000	      3.74582465093896260000	     -0.00000000000005692110	     -0.00000000000018204976	      2.06519645226822620000	      8.49380464460507060000	     12.08673751588739800000	    -30.62383594988477500000	     20.63614169050259400000	      0.00000000000009014754	     -0.00000000000008368616	     -3.34655968139152420000	     -1.26911531345072670000	    -11.00268850587251500000	    -32.16962155693860100000	    -17.50070205039704900000	     -3.60966625704454860000	    105.31004464750787000000	     96.59511520363345500000	      0.00000000000001581535	     -0.00000000000006430465	    -14.38915782195251000000	    -13.91331974761019000000	     -3.57655292745823020000	    129.02284654124591000000	     87.01597693192799500000	      0.00000000000007640141	     -0.00000000000002865277
      1.70550000000000000000	     -5.35481358927155160000	      0.99110425776191835000	      2.45467207441014380000	      0.92042682097782480000	      1.01829283227682940000	     -0.30973995012332511000	     42.38636375559461600000	      4.13051732606550010000	      3.78122235809834080000	    -92.09223990489066100000	      3.78484409357145200000	     -0.00000000000005702411	     -0.00000000000018247805	      1.76118214174557400000	      8.34270432536513160000	     12.03397749751899700000	    -30.32136912598736700000	     20.23964403384944100000	      0.00000000000009032848	     -0.00000000000008451874	     -3.26536468455497130000	     -1.16508231420750820000	    -11.03273795660189500000	    -32.31536398547925200000	    -17.49485746944290900000	     -3.62580102738767970000	    105.44202740200369000000	     96.53250752029211400000	      0.00000000000001584197	     -0.00000000000006450985	    -14.35377175058261500000	    -13.86469578165159600000	     -3.53495280758566150000	    129.22883404129206000000	     87.06532859990007000000	      0.00000000000007658452	     -0.00000000000002881687
      1.70650000000000010000	     -5.37565550735091510000	      0.89903725414575897000	      2.38507782307430330000	      0.92069207468661041000	      1.01907635431339470000	     -0.30956241941219192000	     42.47184949250957700000	      4.24360415081353890000	      3.78746769149858410000	    -91.66357877950758800000	      3.82309022152313100000	     -0.00000000000005713384	     -0.00000000000018290676	      1.45720396048532640000	      8.19110603734203300000	     11.97595591905696600000	    -30.01831697044980300000	     19.83205234720002300000	      0.00000000000009051791	     -0.00000000000008541018	     -3.18463999147241680000	     -1.06081773426371460000	    -11.06016557527564000000	    -32.46157865641249900000	    -17.48714626136694900000	     -3.64400006369664100000	    105.57248642853531000000	     96.47099964109050100000	      0.00000000000001586860	     -0.00000000000006471486	    -14.31992898435492400000	    -13.81537715799636100000	     -3.49217240701961540000	    129.43336233736269000000	     87.11817964458391800000	      0.00000000000007676741	     -0.00000000000002898055
